<svg xmlns="http://www.w3.org/2000/svg" width="158" height="270" viewBox="114.8 57.9 157.1 269.2" fill="#fff"><path d="M194.5 57.9c-38.6 0-69.9 31.3-69.9 69.9s31.3 69.9 69.9 69.9 69.9-31.3 69.9-69.9-31.3-69.9-69.9-69.9zm0 98.8c-16 0-28.9-12.9-28.9-28.9s12.9-28.9 28.9-28.9 28.9 12.9 28.9 28.9-13 28.9-28.9 28.9zm24.7 96.6c28-5.7 44.7-18.9 45.6-19.7 8.2-6.6 9.5-18.5 2.9-26.7s-18.5-9.5-26.7-2.9c-.2.1-18.1 13.9-47.5 13.9s-47.7-13.7-47.8-13.9c-8.2-6.6-20.1-5.2-26.7 2.9-6.6 8.2-5.2 20.1 2.9 26.7.9.7 18.4 14.3 47.1 19.9l-40.1 41.9c-7.3 7.6-7.1 19.6.5 26.9 3.7 3.6 8.4 5.3 13.2 5.3 5 0 10-1.9 13.7-5.8l37.2-39.7 41 39.9c7.4 7.4 19.5 7.4 26.9 0s7.4-19.5 0-26.9l-42.2-41.8zm-25.7-35.5z"/></svg>