<?xml version="1.0" encoding="utf-8"?>
<!-- Generator: Adobe Illustrator 17.1.0, SVG Export Plug-In . SVG Version: 6.00 Build 0)  -->
<!DOCTYPE svg PUBLIC "-//W3C//DTD SVG 1.1//EN" "http://www.w3.org/Graphics/SVG/1.1/DTD/svg11.dtd">
<svg version="1.1" id="Слой_1" xmlns="http://www.w3.org/2000/svg" xmlns:xlink="http://www.w3.org/1999/xlink" x="0px" y="0px"
	 width="1643.4px" height="1643.4px" viewBox="678.3 678.3 1643.4 1643.4" enable-background="new 678.3 678.3 1643.4 1643.4"
	 xml:space="preserve">
<g>
	<path fill="#F2F2F2" d="M1297.9,2101.2c-48.6,0-40.3-18.3-57.1-64.6l-142.9-470.3l1100-652.6"/>
	<path fill="#CCCCCC" d="M1297.9,2101.2c37.5,0,54.1-17.1,75-37.5l200-194.5l-249.5-150.4"/>
	<path fill="#FFFFFF" d="M1323.4,1718.8l604.5,446.6c69,38.1,118.8,18.4,136-64l246.1-1159.5c25.2-101-38.5-146.8-104.5-116.9
		L760.6,1382.1c-98.6,39.6-98.1,94.6-18,119.1l370.8,115.7l858.4-541.6c40.5-24.6,77.7-11.4,47.2,15.7"/>
</g>
</svg>
